<?xml version="1.0" encoding="UTF-8"?>
<svg version="1.1" xmlns="http://www.w3.org/2000/svg" viewBox="320 255 1080 1480">
<path d="M0 0 C2.88166349 2.71030244 5.00987934 5.35865603 7.03125 8.75390625 C7.58796387 9.68050049 8.14467773 10.60709473 8.71826172 11.56176758 C9.30623535 12.55200928 9.89420898 13.54225098 10.5 14.5625 C11.76171471 16.66224372 13.02475409 18.76119199 14.2890625 20.859375 C14.9171582 21.90287109 15.54525391 22.94636719 16.19238281 24.02148438 C18.69976052 28.15303597 21.27839233 32.23664256 23.875 36.3125 C28.58990047 43.72900112 33.21548341 51.19739094 37.8125 58.6875 C43.00529061 67.14815682 48.22806086 75.58842723 53.5 84 C59.39008421 93.39916952 65.21554238 102.83653131 71.01953125 112.2890625 C75.47995915 119.5470015 79.97639951 126.78128596 84.5 134 C90.39001022 143.39921631 96.21554193 152.83653057 102.01953125 162.2890625 C106.47995947 169.54700202 110.97645067 176.78125353 115.5 184 C122.11019083 194.54997616 128.64217168 205.14678248 135.16015625 215.75390625 C143.15616159 228.76607625 151.20764409 241.74287225 159.3125 254.6875 C165.26304952 264.19147645 171.15150465 273.73229085 177.01879883 283.2878418 C181.47944698 290.54620328 185.97619868 297.7808514 190.5 305 C197.11019083 315.54997616 203.64217168 326.14678248 210.16015625 336.75390625 C218.15616159 349.76607625 226.20764409 362.74287225 234.3125 375.6875 C240.26304952 385.19147645 246.15150465 394.73229085 252.01879883 404.2878418 C256.47944667 411.54620276 260.97614752 418.78088383 265.5 426 C271.39001022 435.39921631 277.21554193 444.83653057 283.01953125 454.2890625 C287.47995915 461.5470015 291.97639951 468.78128596 296.5 476 C302.39001022 485.39921631 308.21554193 494.83653057 314.01953125 504.2890625 C318.47995915 511.5470015 322.97639951 518.78128596 327.5 526 C333.39001022 535.39921631 339.21554193 544.83653057 345.01953125 554.2890625 C349.47995943 561.54700195 353.97643942 568.78126053 358.5 576 C363.95491358 584.70587315 369.36762081 593.43667414 374.75 602.1875 C375.42998047 603.29287109 376.10996094 604.39824219 376.81054688 605.53710938 C380.31689618 611.24338139 380.31689618 611.24338139 382 614 C382.84353027 615.34058472 382.84353027 615.34058472 383.70410156 616.70825195 C385 619 385 619 385 621 C349.203671 621.5500072 313.40808586 621.97256348 277.60839745 622.22556791 C273.37670142 622.25558286 269.14501371 622.28664678 264.91333008 622.31835938 C264.07092075 622.32465483 263.22851143 622.33095028 262.36057455 622.3374365 C248.74120586 622.44171462 235.12428223 622.63084704 221.50636148 622.85166711 C207.52027839 623.07655594 193.53547046 623.20950144 179.54765373 623.25812387 C170.92300183 623.29097177 162.30525948 623.39443625 153.68273724 623.58999521 C147.75989144 623.71743596 141.84058513 623.75508609 135.91646975 623.72403306 C132.49870779 623.70871538 129.1025425 623.7443564 125.68532372 623.8609314 C105.77940262 624.50642834 105.77940262 624.50642834 99.44509244 618.62962532 C94.7982623 612.83418407 91.43331864 606.50668073 88.3193351 599.78770161 C86.65051562 596.26155367 84.68453292 593.08225885 82.5625 589.8125 C81.37430728 587.87542474 80.18678793 585.93793625 79 584 C73.87017821 575.64327363 68.70680914 567.30897122 63.5 559 C57.60998978 549.60078369 51.78445807 540.16346943 45.98046875 530.7109375 C41.52004053 523.45299798 37.02354933 516.21874647 32.5 509 C25.88980917 498.45002384 19.35782832 487.85321752 12.83984375 477.24609375 C4.84383841 464.23392375 -3.20764409 451.25712775 -11.3125 438.3125 C-17.26304952 428.80852355 -23.15150465 419.26770915 -29.01879883 409.7121582 C-33.47944667 402.45379724 -37.97614752 395.21911617 -42.5 388 C-48.39001022 378.60078369 -54.21554193 369.16346943 -60.01953125 359.7109375 C-64.47995915 352.4529985 -68.97639951 345.21871404 -73.5 338 C-79.39001022 328.60078369 -85.21554193 319.16346943 -91.01953125 309.7109375 C-95.47995915 302.4529985 -99.97639951 295.21871404 -104.5 288 C-110.39001022 278.60078369 -116.21554193 269.16346943 -122.01953125 259.7109375 C-126.47995915 252.4529985 -130.97639951 245.21871404 -135.5 238 C-141.39001022 228.60078369 -147.21554193 219.16346943 -153.01953125 209.7109375 C-158.08899076 201.46199174 -163.21091826 193.24710577 -168.35327148 185.04345703 C-173.63895014 176.60162166 -178.85175661 168.11606642 -184.0546875 159.62304688 C-189.20565204 151.23622 -194.47195646 142.92739846 -199.83618164 134.67529297 C-200.3852417 133.82338379 -200.93430176 132.97147461 -201.5 132.09375 C-201.9846875 131.34802734 -202.469375 130.60230469 -202.96875 129.83398438 C-204 128 -204 128 -204 126 C-203.05084717 125.86013672 -202.10169434 125.72027344 -201.1237793 125.57617188 C-144.13362484 117.07698163 -91.12323292 96.58739523 -48.22265625 57.03515625 C-46.21135309 55.19352366 -44.15180328 53.4391381 -42.0625 51.6875 C-36.58325092 46.90140894 -31.80775806 41.44337123 -27 36 C-26.55253418 35.49726562 -26.10506836 34.99453125 -25.64404297 34.4765625 C-16.21802608 23.83395185 -7.06489844 12.36357227 0 0 Z " fill="#4A4A4A" transform="translate(988,1078)"/>
<path d="M0 0 C4.02737738 1.34245913 5.34477968 4.00399063 7.625 7.375 C15.53256866 18.72860688 24.4700682 28.99503776 34 39 C34.52110352 39.54978516 35.04220703 40.09957031 35.57910156 40.66601562 C42.98271448 48.43000157 50.75124758 55.31244848 59.33300781 61.74755859 C60.90621674 62.92953894 62.46531973 64.13022723 64.0234375 65.33203125 C65.46589844 66.43611328 65.46589844 66.43611328 66.9375 67.5625 C67.83773783 68.25943077 68.73797566 68.95636153 69.66549343 69.67441142 C71.95756981 71.36234512 74.23796582 72.65339479 76.80987555 73.86852968 C81.65733457 76.29574457 86.7058716 78.85800909 88.86246864 84.093972 C90.27646733 90.4430071 89.9462366 96.93678353 89.80381775 103.39932251 C89.81036222 105.60237517 89.8235022 107.80541643 89.84265524 110.00839555 C89.87616661 116.05294012 89.8162565 122.09349116 89.74098432 128.13752675 C89.68283257 133.98828998 89.69539642 139.83861723 89.70621195 145.68959681 C89.72589417 157.65411084 89.67590387 169.61737979 89.58595085 181.58153152 C89.49713918 193.42428377 89.4394509 205.26651723 89.42315865 217.10960007 C89.42212755 217.84644916 89.42109646 218.58329825 89.42003412 219.3424761 C89.41495899 223.08468994 89.41043828 226.82690423 89.40613098 230.56911902 C89.37463982 257.06287094 89.27362275 283.55594579 89.1315918 310.04931641 C88.99378594 335.78430672 88.88780523 361.51911014 88.82397461 387.25439453 C88.81991498 388.87321437 88.81585441 390.4920342 88.81179291 392.11085403 C88.77896046 405.26482898 88.74832214 418.41880903 88.71821567 431.57279046 C88.57745475 492.3825019 88.27638845 553.19044606 88 614 C0.88 614 -86.24 614 -176 614 C-176.40338894 488.78358961 -176.40338894 488.78358961 -176.48493221 438.66392629 C-176.50426864 426.79023002 -176.52413774 414.91653477 -176.54525994 403.04284153 C-176.54795834 401.52525367 -176.55064205 400.00766579 -176.55331089 398.49007788 C-176.59598924 374.2910625 -176.67103414 350.09228057 -176.76297221 325.89340634 C-176.857281 301.0254047 -176.91885036 276.15753219 -176.9391499 251.28935474 C-176.9420315 247.77795087 -176.94528787 244.26654744 -176.94877243 240.75514412 C-176.94944666 240.06404084 -176.95012089 239.37293756 -176.95081555 238.66089176 C-176.96263879 227.53012473 -177.00903494 216.39975664 -177.06832034 205.26915239 C-177.12716752 194.08257262 -177.14887618 182.89638125 -177.13501377 171.70961403 C-177.12859228 165.64666439 -177.13860966 159.58488687 -177.19205475 153.52214432 C-177.24060581 147.97420214 -177.24325464 142.42822356 -177.20898895 136.88019229 C-177.20475229 134.87062035 -177.21753925 132.86092749 -177.24883182 130.85159474 C-177.46928803 115.82516778 -177.46928803 115.82516778 -173.85275722 111.33266842 C-171.2929005 109.50407642 -168.87975353 108.24583228 -166 107 C-164.4730159 106.05015372 -162.95849001 105.07957858 -161.46484375 104.078125 C-159.95711666 103.13319916 -158.44796418 102.19054441 -156.9375 101.25 C-155.26123972 100.19868006 -153.58546743 99.1465817 -151.91015625 98.09375 C-151.0814502 97.57296875 -150.25274414 97.0521875 -149.39892578 96.515625 C-145.87297114 94.28795083 -142.37215451 92.0225315 -138.875 89.75 C-131.76992697 85.13532105 -124.63851636 80.56276303 -117.5 76 C-109.82701635 71.094865 -102.16418706 66.17531604 -94.5246582 61.21826172 C-88.26299962 57.15993223 -81.97522458 53.14278791 -75.6875 49.125 C-67.30152002 43.76561471 -58.93837989 38.3736453 -50.6027832 32.9362793 C-42.83095945 27.87358462 -35.01128384 22.88653987 -27.18505859 17.90844727 C-22.25128001 14.76063972 -17.34804137 11.58298876 -12.515625 8.28125 C-11.68369629 7.71414307 -10.85176758 7.14703613 -9.99462891 6.56274414 C-8.45404077 5.50610956 -6.91946663 4.44063356 -5.39208984 3.36499023 C-3.64515526 2.16629798 -1.82771603 1.0714932 0 0 Z " fill="#4A4A4A" transform="translate(532,1085)"/>
<path d="M0 0 C86.79 0 173.58 0 263 0 C263.44364484 105.0766081 263.44364484 105.0766081 263.53710938 148.90625 C263.55864646 158.93880408 263.5808719 168.97135628 263.60424805 179.00390625 C263.60714928 180.26134895 263.61005052 181.51879166 263.61303967 182.81433868 C263.66090176 203.12342379 263.74763415 223.43216682 263.84868076 243.74104899 C263.95149369 264.57849495 264.0126351 285.41576166 264.03497344 306.25345087 C264.05007825 319.11497299 264.09780852 331.97552874 264.18708114 344.83675343 C264.24516079 353.6523771 264.26281638 362.46750012 264.24851515 371.28330129 C264.2414586 376.37242513 264.25238442 381.4598588 264.31126022 386.54868317 C264.36477516 391.20813201 264.36751524 395.8647541 264.32988784 400.52433282 C264.3252377 402.20958148 264.33921749 403.89500612 264.37371501 405.57990807 C264.61663512 418.17706133 264.61663512 418.17706133 260.57539713 422.73401356 C257.79973749 424.77721791 255.05652742 426.41855369 252 428 C230.2196388 443.81132189 209.90735161 462.19595771 194 484 C193.25234375 484.95261719 192.5046875 485.90523437 191.734375 486.88671875 C175.81213452 507.29056887 163.84694978 530.93083158 154.83984375 555.09375 C154.5159668 555.94187256 154.19208984 556.78999512 153.85839844 557.66381836 C153.12589703 559.65736385 152.49524226 561.68783904 151.88671875 563.72265625 C149.00578284 568.7270149 144.72966761 570.97606447 139.875 573.9375 C138.86034668 574.57719727 137.84569336 575.21689453 136.80029297 575.87597656 C134.64405496 577.23471996 132.48327165 578.58627286 130.31835938 579.93115234 C125.95753085 582.64993258 121.63449978 585.42569299 117.31103516 588.20336914 C114.14052308 590.24002835 110.96536617 592.26926265 107.7890625 594.296875 C103.01486364 597.34753077 98.25263263 600.41588215 93.5 603.5 C85.42982336 608.73611461 77.32401455 613.91607641 69.21875 619.09765625 C63.30170766 622.88197823 57.39218382 626.67709502 51.5 630.5 C43.44750025 635.72453853 35.36059215 640.89486672 27.27148438 646.0625 C22.38985212 649.18290415 17.51280208 652.3094196 12.65625 655.46875 C11.86154297 655.98566406 11.06683594 656.50257813 10.24804688 657.03515625 C8.78446879 657.98883441 7.32216031 658.94446475 5.86132812 659.90234375 C1.10869354 663 1.10869354 663 0 663 C0 444.21 0 225.42 0 0 Z " fill="#4A4A4A" transform="translate(350,286)"/>
<path d="M0 0 C1.20398438 0.19464844 2.40796875 0.38929688 3.6484375 0.58984375 C13.5683913 2.3181656 22.91878832 4.92826078 32.4375 8.1875 C33.15745148 8.43121338 33.87740295 8.67492676 34.61917114 8.92602539 C73.43622185 22.10034928 108.12378624 46.20650429 132.70898438 79.26904297 C133.95065637 80.93384146 135.21564829 82.57843871 136.484375 84.22265625 C155.87407371 109.82507497 168.15383924 141.35562298 173 173 C173.16846436 174.01239746 173.33692871 175.02479492 173.51049805 176.06787109 C174.87228339 184.71172017 175.34974902 193.13037522 175.3125 201.875 C175.31134186 202.54064972 175.31018372 203.20629944 175.30899048 203.89212036 C175.2680886 215.89887563 174.2939238 227.6537085 172.39257812 239.51367188 C172.05076595 241.67848231 171.7575424 243.84139015 171.484375 246.015625 C167.15086887 275.11202331 153.11579315 303.42487531 136 327 C135.32783447 327.9266748 135.32783447 327.9266748 134.64208984 328.87207031 C103.22154468 371.59656115 54.8988856 401.9515446 2.37158203 410.64160156 C-43.9622891 417.64367309 -89.70653182 410.10389851 -131 388 C-131.60295898 387.67918457 -132.20591797 387.35836914 -132.82714844 387.02783203 C-160.3600501 372.23997513 -184.02588916 350.4672602 -202 325 C-202.70866211 324.0097583 -202.70866211 324.0097583 -203.43164062 322.99951172 C-217.74556767 302.78484342 -227.37117105 279.77367683 -234 256 C-234.28520508 254.98437988 -234.57041016 253.96875977 -234.86425781 252.92236328 C-242.56624851 223.9152933 -242.46145963 188.06916112 -235 159 C-234.64591064 157.55488037 -234.64591064 157.55488037 -234.28466797 156.08056641 C-225.93780796 122.68774477 -209.81492666 92.66471538 -187 67 C-186.13117187 66.00871094 -185.26234375 65.01742187 -184.3671875 63.99609375 C-179.53835368 58.56919336 -174.58514673 53.6340529 -169 49 C-168.1646875 48.26523437 -167.329375 47.53046875 -166.46875 46.7734375 C-139.83112575 23.72164729 -106.52367145 7.80930854 -72 1 C-71.18515137 0.83773926 -70.37030273 0.67547852 -69.53076172 0.50830078 C-47.11442626 -3.7283735 -22.50346151 -3.6926313 0 0 Z " fill="#79A3EB" transform="translate(791,729)"/>
<path d="M0 0 C1.96040881 -0.37259549 1.96040881 -0.37259549 4.41593361 -0.36914349 C5.81700668 -0.3781032 5.81700668 -0.3781032 7.24638426 -0.38724393 C8.27944178 -0.3785054 9.31249929 -0.36976688 10.37686157 -0.36076355 C11.4688789 -0.36332682 12.56089623 -0.3658901 13.686005 -0.36853105 C17.36975585 -0.37349885 21.05310289 -0.35692643 24.73681641 -0.34057617 C27.36761973 -0.33973055 29.99842377 -0.34020377 32.62922668 -0.34190369 C38.30578468 -0.34347906 43.98223948 -0.3340424 49.65877151 -0.31719017 C57.86613246 -0.29284035 66.07344335 -0.28499903 74.28083651 -0.2812262 C87.5957813 -0.27465539 100.91067105 -0.25467719 114.22558594 -0.22631836 C127.16210657 -0.19879405 140.09861226 -0.17755252 153.03515625 -0.16479492 C154.23065981 -0.16361267 154.23065981 -0.16361267 155.45031495 -0.16240653 C159.44852062 -0.1584915 163.44672638 -0.15470036 167.44493222 -0.15097082 C200.62999489 -0.11985531 233.81499009 -0.06700243 267 0 C265.77447721 3.7427523 264.48763874 7.28147831 262.74438477 10.81420898 C262.29954239 11.72053574 261.85470001 12.62686249 261.39637756 13.56065369 C260.91623703 14.52934891 260.4360965 15.49804413 259.94140625 16.49609375 C259.43761948 17.52066177 258.9338327 18.5452298 258.41477966 19.60084534 C256.80093499 22.88150851 255.18199494 26.15962292 253.5625 29.4375 C251.45778529 33.70612149 249.35526943 37.97582146 247.25390625 42.24609375 C246.73125687 43.307677 246.20860748 44.36926025 245.67012024 45.4630127 C241.22179314 54.51383068 236.864585 63.60657628 232.52563477 72.71020508 C229.28772511 79.50143151 226.00077229 86.26850692 222.70651245 93.03253174 C220.89107867 96.76039351 219.07839203 100.4895909 217.265625 104.21875 C216.90270859 104.96524811 216.53979218 105.71174622 216.1658783 106.48086548 C212.74359813 113.52274161 209.33834057 120.57274606 205.9375 127.625 C200.97125863 137.92297298 195.9903944 148.21371642 191 158.5 C183.64695607 173.65718675 176.31912733 188.82640345 169 204 C161.3431117 219.87382329 153.67427487 235.74166147 145.98205566 251.59838867 C138.96875828 266.05631176 131.98136654 280.52662983 125 295 C117.34245992 310.87517451 109.67328204 326.7445172 101.9800415 342.60241699 C97.3095728 352.229924 92.64909428 361.86215157 88 371.5 C82.67388647 382.5413495 77.33033107 393.57413099 71.97949219 404.60351562 C67.30920895 414.23065749 62.64891638 423.86252039 58 433.5 C53.0124848 443.83941508 48.01060412 454.17175696 43 464.5 C35.64700379 479.65721001 28.31912742 494.82640328 21 510 C18.70870596 514.75017988 16.41706276 519.50019099 14.125 524.25 C13.5575708 525.4261084 12.9901416 526.6022168 12.40551758 527.81396484 C9.21507952 534.42440678 6.01597901 541.03057603 2.80859375 547.6328125 C2.45438354 548.36222046 2.10017334 549.09162842 1.73522949 549.84313965 C0.02232451 553.37039861 -1.69160866 556.89714895 -3.40771484 560.42285156 C-7.69432614 569.24116374 -11.87910599 578.10306696 -16 587 C-16.66 587 -17.32 587 -18 587 C-18.15968262 586.37359619 -18.31936523 585.74719238 -18.48388672 585.10180664 C-32.97191857 529.0559992 -63.90461378 475.98674889 -110 440 C-110.90830566 439.27707764 -110.90830566 439.27707764 -111.83496094 438.53955078 C-135.93243835 419.37028826 -162.2803619 405.03525714 -191 394 C-184.9693508 381.13117878 -178.77993739 368.34149123 -172.56228638 355.56234741 C-168.01697395 346.21985396 -163.48504979 336.87162878 -159 327.5 C-153.8812169 316.80735185 -148.70575882 306.14274898 -143.52200317 295.48150635 C-138.0774317 284.28352854 -132.65144395 273.07688491 -127.24316406 261.86132812 C-122.8005642 252.65099817 -118.33969183 243.44963515 -113.875 234.25 C-109.24938672 224.71851618 -104.63819135 215.18058455 -100.0625 205.625 C-94.92207727 194.8913162 -89.7262763 184.18500442 -84.52227783 173.48205566 C-79.64619475 163.45330893 -74.7814394 153.41931699 -69.9375 143.375 C-64.97123806 133.0770369 -59.99039443 122.78628364 -55 112.5 C-47.07989737 96.17390761 -39.18855251 79.83406188 -31.30712891 63.48925781 C-27.54168792 55.68049953 -23.77283053 47.87340186 -19.99969482 40.06835938 C-18.92016131 37.83481448 -17.84118828 35.60099923 -16.76220703 33.3671875 C-14.81050738 29.32737018 -12.85619131 25.28882661 -10.90029907 21.2510376 C-10.13778966 19.67601153 -9.37604153 18.10061667 -8.61508179 16.52484131 C-7.55276525 14.32543972 -6.48766103 12.12740948 -5.421875 9.9296875 C-5.10481094 9.27170166 -4.78774689 8.61371582 -4.46107483 7.93579102 C-3.10705806 5.15029545 -1.7219483 2.58292244 0 0 Z " fill="#4A4A4A" transform="translate(1040,285)"/>
</svg>
