<svg xmlns="http://www.w3.org/2000/svg" viewBox="0 0 48 48" width="48" height="48">
  <defs>
    <linearGradient id="logo-grad" x1="0%" y1="0%" x2="100%" y2="100%">
      <stop offset="0%" stop-color="#2563eb"/>
      <stop offset="100%" stop-color="#1d4ed8"/>
    </linearGradient>
  </defs>
  <!-- Hexagon outline -->
  <polygon points="24,2 44,13 44,35 24,46 4,35 4,13" fill="none" stroke="url(#logo-grad)" stroke-width="2.5" stroke-linejoin="round"/>
  <!-- Inner neural network nodes -->
  <circle cx="24" cy="12" r="2.5" fill="#2563eb"/>
  <circle cx="14" cy="22" r="2.5" fill="#2563eb"/>
  <circle cx="34" cy="22" r="2.5" fill="#2563eb"/>
  <circle cx="18" cy="34" r="2.5" fill="#2563eb"/>
  <circle cx="30" cy="34" r="2.5" fill="#2563eb"/>
  <circle cx="24" cy="24" r="3" fill="#1d4ed8"/>
  <!-- Connection lines -->
  <line x1="24" y1="12" x2="24" y2="24" stroke="#2563eb" stroke-width="1.2" opacity="0.6"/>
  <line x1="14" y1="22" x2="24" y2="24" stroke="#2563eb" stroke-width="1.2" opacity="0.6"/>
  <line x1="34" y1="22" x2="24" y2="24" stroke="#2563eb" stroke-width="1.2" opacity="0.6"/>
  <line x1="18" y1="34" x2="24" y2="24" stroke="#2563eb" stroke-width="1.2" opacity="0.6"/>
  <line x1="30" y1="34" x2="24" y2="24" stroke="#2563eb" stroke-width="1.2" opacity="0.6"/>
  <line x1="24" y1="12" x2="14" y2="22" stroke="#2563eb" stroke-width="0.8" opacity="0.35"/>
  <line x1="24" y1="12" x2="34" y2="22" stroke="#2563eb" stroke-width="0.8" opacity="0.35"/>
  <line x1="14" y1="22" x2="18" y2="34" stroke="#2563eb" stroke-width="0.8" opacity="0.35"/>
  <line x1="34" y1="22" x2="30" y2="34" stroke="#2563eb" stroke-width="0.8" opacity="0.35"/>
  <line x1="18" y1="34" x2="30" y2="34" stroke="#2563eb" stroke-width="0.8" opacity="0.35"/>
</svg>
